<svg width="44" height="43" viewBox="0 0 44 43" fill="none" xmlns="http://www.w3.org/2000/svg">
<g id="Weather">
<g id="Vector">
<path d="M36.3333 21.5C36.3333 29.4161 29.9161 35.8333 22 35.8333C14.0839 35.8333 7.66667 29.4161 7.66667 21.5C7.66667 13.5839 14.0839 7.16667 22 7.16667C29.9161 7.16667 36.3333 13.5839 36.3333 21.5Z" fill="#72A8B8"/>
<path d="M21.4358 0.325758C21.6865 -0.108586 22.3135 -0.108586 22.5642 0.325758L24.8211 4.23485C25.0719 4.66919 24.7584 5.21212 24.2569 5.21212H19.7431C19.2415 5.21212 18.9281 4.66919 19.1789 4.23485L21.4358 0.325758Z" fill="#72A8B8"/>
<path d="M36.5735 6.12856C37.058 5.99875 37.5013 6.44205 37.3715 6.9265L36.2032 11.2865C36.0734 11.771 35.4678 11.9332 35.1132 11.5786L31.9214 8.38683C31.5668 8.03219 31.7291 7.42663 32.2135 7.29682L36.5735 6.12856Z" fill="#72A8B8"/>
<path d="M43.1742 20.9358C43.6086 21.1865 43.6086 21.8135 43.1742 22.0642L39.2651 24.3211C38.8308 24.5719 38.2879 24.2584 38.2879 23.7569V19.2431C38.2879 18.7415 38.8308 18.4281 39.2651 18.6789L43.1742 20.9358Z" fill="#72A8B8"/>
<path d="M37.3714 36.0735C37.5012 36.5579 37.0579 37.0012 36.5734 36.8714L32.2134 35.7031C31.7289 35.5733 31.5667 34.9678 31.9213 34.6131L35.1131 31.4214C35.4677 31.0667 36.0733 31.229 36.2031 31.7134L37.3714 36.0735Z" fill="#72A8B8"/>
<path d="M22.5642 42.6742C22.3135 43.1086 21.6865 43.1086 21.4358 42.6742L19.1789 38.7651C18.9281 38.3308 19.2415 37.7879 19.7431 37.7879H24.2569C24.7584 37.7879 25.0719 38.3308 24.8211 38.7651L22.5642 42.6742Z" fill="#72A8B8"/>
<path d="M7.42647 36.8714C6.94202 37.0012 6.49872 36.5579 6.62853 36.0735L7.79679 31.7135C7.9266 31.229 8.53216 31.0668 8.8868 31.4214L12.0786 34.6132C12.4332 34.9678 12.2709 35.5734 11.7865 35.7032L7.42647 36.8714Z" fill="#72A8B8"/>
<path d="M0.825757 22.0642C0.391414 21.8135 0.391414 21.1865 0.825758 20.9358L4.73485 18.6789C5.16919 18.4281 5.71212 18.7415 5.71212 19.2431L5.71212 23.7569C5.71212 24.2585 5.16919 24.5719 4.73485 24.3211L0.825757 22.0642Z" fill="#72A8B8"/>
<path d="M6.62864 6.92655C6.49883 6.4421 6.94213 5.9988 7.42658 6.12861L11.7866 7.29687C12.271 7.42668 12.4333 8.03224 12.0787 8.38688L8.88691 11.5786C8.53227 11.9333 7.92671 11.771 7.7969 11.2866L6.62864 6.92655Z" fill="#72A8B8"/>
</g>
</g>
</svg>
