<svg width="66" height="41" viewBox="0 0 66 41" fill="none" xmlns="http://www.w3.org/2000/svg">
<path d="M34.3477 15.869L35.3652 18.0202L37.3092 16.6477C37.8527 16.264 38.4383 15.9409 39.0558 15.6851C40.1478 15.2328 41.3181 15 42.5 15C43.6819 15 44.8522 15.2328 45.9441 15.6851C47.0361 16.1374 48.0282 16.8003 48.864 17.636C49.6997 18.4718 50.3626 19.4639 50.8149 20.5558C50.9489 20.8794 51.0637 21.2099 51.1588 21.5455L51.5711 23H53.7198C59.2525 23 63.5 27.1563 63.5 32C63.5 36.8437 59.2525 41 53.7198 41H10.2802C4.74745 41 0.5 36.8437 0.5 32C0.5 26.9774 4.1499 23 9.5 23H11.5L11.5 21C11.5 17.8174 12.7643 14.7652 15.0147 12.5147C17.2652 10.2643 20.3174 9 23.5 9C26.6826 9 29.7348 10.2643 31.9853 12.5147C32.9689 13.4984 33.7641 14.6351 34.3477 15.869Z" fill="#72A8B8"/>
<path d="M43.4357 0.325758C43.6865 -0.108586 44.3134 -0.108586 44.5642 0.325758L46.8211 4.23485C47.0719 4.66919 46.7584 5.21212 46.2569 5.21212H41.743C41.2415 5.21212 40.9281 4.66919 41.1788 4.23485L43.4357 0.325758Z" fill="#72A8B8"/>
<path d="M58.3285 21.8737C56.9129 21.3112 55.3553 21 53.7197 21H53.083C52.9667 20.5898 52.8264 20.186 52.6626 19.7905C52.1098 18.4559 51.2996 17.2433 50.2781 16.2218C49.2567 15.2004 48.0441 14.3901 46.7095 13.8373C45.3749 13.2845 43.9445 13 42.5 13C41.5107 13 40.528 13.1334 39.5783 13.3951C39.1412 13.5155 38.7111 13.6631 38.2904 13.8373C37.5357 14.15 36.8199 14.5449 36.1557 15.0139C35.5863 13.8101 34.8443 12.6855 33.9455 11.6784C33.8838 11.6093 33.8213 11.5407 33.7581 11.4726C36.3599 8.81551 39.9874 7.16667 44 7.16667C51.916 7.16667 58.3333 13.5839 58.3333 21.5C58.3333 21.6249 58.3317 21.7495 58.3285 21.8737Z" fill="#72A8B8"/>
<path d="M61.8115 24.0057C61.3389 23.5884 60.8293 23.2073 60.2878 22.8671V19.2431C60.2878 18.7415 60.8308 18.4281 61.2651 18.6789L65.1742 20.9358C65.6086 21.1865 65.6086 21.8135 65.1742 22.0642L61.8115 24.0057Z" fill="#72A8B8"/>
<path d="M32.3299 10.1356C31.2977 9.29668 30.1565 8.61356 28.9435 8.10161L28.6286 6.92655C28.4988 6.4421 28.9421 5.9988 29.4265 6.12861L33.7866 7.29687C34.271 7.42668 34.4333 8.03224 34.0786 8.38688L32.3299 10.1356Z" fill="#72A8B8"/>
<path d="M59.3714 6.9265C59.5012 6.44205 59.0579 5.99875 58.5735 6.12856L54.2135 7.29682C53.729 7.42663 53.5668 8.03219 53.9214 8.38683L57.1132 11.5786C57.4678 11.9332 58.0734 11.771 58.2032 11.2865L59.3714 6.9265Z" fill="#72A8B8"/>
</svg>
