<svg width="68" height="44" viewBox="0 0 68 44" fill="none" xmlns="http://www.w3.org/2000/svg">
<g id="Weather">
<path id="Union" d="M38.1557 8.90624C37.4748 7.46667 36.5471 6.1404 35.3995 4.99284C32.774 2.36733 29.213 0.892334 25.5 0.892334C21.787 0.892334 18.226 2.36733 15.6005 4.99284C12.975 7.61835 11.5 11.1793 11.5 14.8923C4.99396 14.8923 0.5 19.8172 0.5 25.8923C0.5 31.9675 5.77418 36.8923 12.2802 36.8923H55.7198C62.2258 36.8923 67.5 31.9675 67.5 25.8923C67.5 19.8172 62.2258 14.8923 55.7198 14.8923H55.083C54.9667 14.4822 54.8265 14.0783 54.6627 13.6828C54.1099 12.3482 53.2996 11.1356 52.2782 10.1142C51.2567 9.09271 50.0441 8.28246 48.7095 7.72966C47.3749 7.17686 45.9445 6.89233 44.5 6.89233C43.0555 6.89233 41.6251 7.17686 40.2905 7.72966C39.5357 8.0423 38.8199 8.43728 38.1557 8.90624Z" fill="#72A8B8"/>
</g>
</svg>
