<svg width="68" height="44" viewBox="0 0 68 44" fill="none" xmlns="http://www.w3.org/2000/svg">
<g id="Weather">
<g id="Vector">
<path d="M17.9228 4.67668C17.6078 3.99688 17.1785 3.37059 16.6475 2.82868C15.4327 1.58886 13.7851 0.892334 12.0672 0.892334C10.3492 0.892334 8.70159 1.58886 7.4868 2.82868C6.27201 4.06851 5.58955 5.75007 5.58955 7.50344C2.5793 7.50344 0.5 9.82908 0.5 12.6979C0.5 15.5667 2.94029 17.8923 5.95055 17.8923H26.0494C29.0597 17.8923 31.5 15.5667 31.5 12.6979C31.5 9.82908 29.0597 7.50344 26.0494 7.50344H25.7548C25.701 7.30975 25.6361 7.11903 25.5603 6.93228C25.3046 6.30206 24.9297 5.72943 24.4571 5.24708C23.9845 4.76474 23.4234 4.38212 22.8059 4.12107C22.1884 3.86003 21.5266 3.72567 20.8582 3.72567C20.1898 3.72567 19.528 3.86003 18.9105 4.12107C18.5613 4.26871 18.2301 4.45523 17.9228 4.67668Z" fill="#72A8B8"/>
<path d="M53.9228 4.67668C53.6078 3.99688 53.1785 3.37059 52.6475 2.82868C51.4327 1.58886 49.7851 0.892334 48.0672 0.892334C46.3492 0.892334 44.7016 1.58886 43.4868 2.82868C42.272 4.06851 41.5896 5.75007 41.5896 7.50344C38.5793 7.50344 36.5 9.82908 36.5 12.6979C36.5 15.5667 38.9403 17.8923 41.9506 17.8923H62.0494C65.0597 17.8923 67.5 15.5667 67.5 12.6979C67.5 9.82908 65.0597 7.50344 62.0494 7.50344H61.7548C61.701 7.30975 61.6361 7.11903 61.5603 6.93228C61.3046 6.30206 60.9297 5.72943 60.4571 5.24708C59.9845 4.76474 59.4234 4.38212 58.8059 4.12107C58.1884 3.86003 57.5266 3.72567 56.8582 3.72567C56.1898 3.72567 55.528 3.86003 54.9105 4.12107C54.5613 4.26871 54.2301 4.45523 53.9228 4.67668Z" fill="#72A8B8"/>
<path d="M38.9228 23.6767C38.6078 22.9969 38.1785 22.3706 37.6475 21.8287C36.4327 20.5889 34.7851 19.8923 33.0672 19.8923C31.3492 19.8923 29.7016 20.5889 28.4868 21.8287C27.272 23.0685 26.5896 24.7501 26.5896 26.5034C23.5793 26.5034 21.5 28.8291 21.5 31.6979C21.5 34.5667 23.9403 36.8923 26.9506 36.8923H47.0494C50.0597 36.8923 52.5 34.5667 52.5 31.6979C52.5 28.8291 50.0597 26.5034 47.0494 26.5034H46.7548C46.701 26.3098 46.6361 26.119 46.5603 25.9323C46.3046 25.3021 45.9297 24.7294 45.4571 24.2471C44.9845 23.7647 44.4234 23.3821 43.8059 23.1211C43.1884 22.86 42.5266 22.7257 41.8582 22.7257C41.1898 22.7257 40.528 22.86 39.9105 23.1211C39.5613 23.2687 39.2301 23.4552 38.9228 23.6767Z" fill="#72A8B8"/>
</g>
</g>
</svg>
