<svg width="68" height="43" viewBox="0 0 68 43" fill="none" xmlns="http://www.w3.org/2000/svg">
<path d="M35.3615 4.10059C36.5093 5.24805 37.437 6.57422 38.1179 8.01392C38.2431 7.92554 38.3703 7.8396 38.4992 7.75635C38.5613 7.71631 38.6238 7.67676 38.6867 7.63794C38.7444 7.60229 38.8022 7.56738 38.8603 7.53296L38.976 7.46558C39.3864 7.22925 39.813 7.01929 40.2527 6.8374C41.5871 6.28442 43.0176 6 44.4621 6C45.9067 6 47.3371 6.28442 48.6716 6.8374C50.0061 7.39014 51.2187 8.20044 52.2402 9.22192C53.2617 10.2432 54.072 11.4558 54.6247 12.7905C54.6521 12.8567 54.6789 12.9231 54.7048 12.9897L54.7502 13.1077C54.7715 13.1636 54.7922 13.2197 54.8125 13.2759C54.8984 13.5146 54.976 13.7563 55.0451 14H55.6819C61.8274 14 66.8735 18.394 67.4143 24.001C67.4673 24.5508 67.0144 25 66.4621 25H1.46213C0.909885 25 0.457737 24.551 0.503147 24.0005C0.96677 18.3938 5.31687 14 11.4621 14C11.4621 10.2869 12.937 6.72607 15.5627 4.10059C18.1882 1.4751 21.749 0 25.4621 0C29.175 0 32.7361 1.4751 35.3615 4.10059Z" fill="#72A8B8"/>
<path d="M9.52268 36.1362C8.93699 35.5505 8.93699 34.6008 9.52268 34.0151L15.1797 28.3582C15.7654 27.7725 16.7151 27.7725 17.301 28.3582C17.8867 28.9438 17.8867 29.8938 17.301 30.4795L11.644 36.1362C11.0583 36.7222 10.1086 36.7222 9.52268 36.1362Z" fill="#72A8B8"/>
<path d="M33.5227 34.0151C32.937 34.6008 32.937 35.5505 33.5227 36.1362C34.1086 36.7222 35.0583 36.7222 35.644 36.1362L41.301 30.4795C41.8867 29.8938 41.8867 28.9438 41.301 28.3582C40.7151 27.7725 39.7654 27.7725 39.1797 28.3582L33.5227 34.0151Z" fill="#72A8B8"/>
<path d="M12.3332 41.4529C11.7475 40.8672 11.7475 39.9175 12.3332 39.3318L23.6042 28.0608C24.1902 27.4749 25.1399 27.4749 25.7256 28.0608C26.3115 28.6465 26.3115 29.5962 25.7256 30.1819L14.4546 41.4529C13.8689 42.0388 12.9192 42.0388 12.3332 41.4529Z" fill="#72A8B8"/>
<path d="M36.3332 39.3318C35.7475 39.9175 35.7475 40.8672 36.3332 41.4529C36.9192 42.0388 37.8689 42.0388 38.4546 41.4529L49.7256 30.1819C50.3115 29.5962 50.3115 28.6465 49.7256 28.0608C49.1399 27.4749 48.1902 27.4749 47.6042 28.0608L36.3332 39.3318Z" fill="#72A8B8"/>
<path d="M22.0522 39.9263C21.4665 39.3406 21.4665 38.3909 22.0522 37.8052L31.7966 28.0608C32.3823 27.4751 33.332 27.4751 33.9179 28.0608C34.5036 28.6465 34.5036 29.5964 33.9179 30.1821L24.1736 39.9263C23.5879 40.5122 22.6382 40.5122 22.0522 39.9263Z" fill="#72A8B8"/>
<path d="M46.0522 37.8052C45.4665 38.3909 45.4665 39.3406 46.0522 39.9263C46.6382 40.5122 47.5879 40.5122 48.1736 39.9263L57.9179 30.1821C58.5036 29.5964 58.5036 28.6465 57.9179 28.0608C57.332 27.4751 56.3823 27.4751 55.7966 28.0608L46.0522 37.8052Z" fill="#72A8B8"/>
</svg>
