<svg width="21" height="21" viewBox="0 0 21 21" fill="none" xmlns="http://www.w3.org/2000/svg">
<g id="Union">
<path fill-rule="evenodd" clip-rule="evenodd" d="M5.55025 15.4497L8.02513 10.8535C8.02513 10.8535 8.81939 9.35214 9.08579 9.08574C9.86683 8.30469 11.1332 8.30469 11.9142 9.08574C12.6953 9.86679 12.6953 11.1331 11.9142 11.9142C11.6478 12.1806 10.1464 12.9748 10.1464 12.9748L5.55025 15.4497ZM10.8536 10.8535C10.8536 10.8535 10.537 11.244 10.1464 10.8535C9.75592 10.463 10.1464 10.1464 10.1464 10.1464C10.1464 10.1464 10.463 9.75588 10.8536 10.1464C11.2441 10.5369 10.8536 10.8535 10.8536 10.8535Z" fill="#264156"/>
<path fill-rule="evenodd" clip-rule="evenodd" d="M3.42893 3.42889C7.33417 -0.476356 13.6658 -0.476356 17.5711 3.42889C21.4763 7.33413 21.4763 13.6658 17.5711 17.571C13.6658 21.4763 7.33418 21.4763 3.42893 17.571C-0.476311 13.6658 -0.476312 7.33413 3.42893 3.42889ZM4.84314 4.8431C7.96734 1.71891 13.0327 1.71891 16.1569 4.8431C19.281 7.96729 19.281 13.0326 16.1569 16.1568C13.0327 19.281 7.96734 19.281 4.84315 16.1568C1.71895 13.0326 1.71895 7.9673 4.84314 4.8431Z" fill="#264156"/>
</g>
</svg>
