<svg width="9" height="38" viewBox="0 0 9 38" fill="none" xmlns="http://www.w3.org/2000/svg">
<path d="M1.68 24.936L0.432 0.599998H8.128L6.828 24.936H1.68ZM4.28 37.364C3.06667 37.364 2.06133 36.9653 1.264 36.168C0.466667 35.3707 0.0680002 34.4173 0.0680002 33.308C0.0680002 32.1987 0.466667 31.2627 1.264 30.5C2.06133 29.7027 3.06667 29.304 4.28 29.304C5.49333 29.304 6.48133 29.7027 7.244 30.5C8.00667 31.2627 8.388 32.1987 8.388 33.308C8.388 34.4173 8.00667 35.3707 7.244 36.168C6.48133 36.9653 5.49333 37.364 4.28 37.364Z" fill="#F15050"/>
</svg>
