<svg width="112" height="107" viewBox="0 0 112 107" fill="none" xmlns="http://www.w3.org/2000/svg">
<g id="Frame 870">
<path id="Vector" d="M101.073 70.773C100.095 69.6557 98.7872 68.8701 97.3333 68.5272C95.8794 68.1842 94.3533 68.3013 92.9704 68.8619C91.5875 69.4225 90.4178 70.3982 89.6265 71.6513C88.8352 72.9043 88.4623 74.3713 88.5605 75.8451C88.5594 75.9654 88.5706 76.0855 88.594 76.2036C88.5927 76.2112 88.5927 76.2189 88.594 76.2265C88.6583 76.5519 88.7226 76.8774 88.7818 77.2053C89.4577 80.8944 89.7166 84.6464 89.5537 88.392C89.5331 88.8369 89.5074 89.2818 89.4739 89.7268C89.4447 90.0977 89.5318 90.4686 89.7235 90.7889C89.9152 91.1092 90.2021 91.3633 90.5452 91.5167C90.8882 91.6701 91.2708 91.7153 91.6408 91.6461C92.0108 91.5769 92.3503 91.3968 92.6129 91.1302C92.9449 90.8048 93.2665 90.4742 93.583 90.1412C96.7166 86.8638 99.4214 83.2106 101.634 79.2672C101.847 78.8935 102.051 78.5045 102.251 78.1333C102.772 76.9213 102.938 75.5895 102.732 74.2887C102.526 72.9879 101.956 71.7701 101.086 70.773H101.073ZM98.487 76.4579C98.3975 76.6827 98.2809 76.8962 98.1397 77.0935C97.1272 78.9205 95.9988 80.6826 94.7614 82.369L94.4166 82.8292C94.3627 82.903 94.2873 82.9589 94.2005 82.9893C94.1122 83.0147 94.0185 83.0147 93.9303 82.9893C93.8413 82.9647 93.762 82.9138 93.7031 82.8433C93.6442 82.7729 93.6086 82.6863 93.601 82.5953V82.5826C93.601 82.4275 93.5881 82.2698 93.5675 82.1173C93.4197 80.1555 93.162 78.2033 92.7956 76.2697C92.7309 76.0657 92.6903 75.855 92.6747 75.6417C92.6747 75.6239 92.6747 75.6087 92.6747 75.5909C92.6441 75.1462 92.7153 74.7004 92.8831 74.2866C93.0555 73.8718 93.3192 73.5001 93.655 73.1985C93.9868 72.8962 94.3835 72.6719 94.8154 72.5425C95.2472 72.4126 95.703 72.38 96.1492 72.4473C96.5954 72.5146 97.0206 72.68 97.3935 72.9313C97.7663 73.1827 98.0774 73.5135 98.3036 73.8994C98.5298 74.2854 98.6655 74.7166 98.7006 75.1612C98.7365 75.6067 98.6696 76.0544 98.505 76.4706L98.487 76.4579Z" fill="#264156"/>
<path id="Vector_2" d="M83.9084 49.2462C83.1571 50.0652 82.6138 51.0491 82.3234 52.1166C82.2437 52.5361 82.1665 52.9581 82.0996 53.3878C81.3628 57.8411 81.1986 62.3686 81.6107 66.8627C81.6519 67.3203 81.6982 67.7779 81.7522 68.233C81.7931 68.6024 81.948 68.9505 82.1959 69.2299C82.4438 69.5094 82.7728 69.7066 83.1381 69.7949C83.5034 69.8832 83.8874 69.8583 84.2378 69.7235C84.5883 69.5887 84.8883 69.3506 85.0971 69.0415C85.3544 68.6729 85.6117 68.3068 85.869 67.9457C86.961 66.4408 88.1379 64.9979 89.394 63.6236C90.6751 62.2157 92.0358 60.8805 93.4696 59.6244C93.7269 59.4057 93.9841 59.1871 94.2414 58.9735V58.9583C94.3315 58.8744 94.4138 58.7854 94.4987 58.704C95.4426 57.6688 96.0548 56.3805 96.2581 55.0017C96.4614 53.6229 96.2467 52.2155 95.6411 50.9573C95.2374 50.122 94.6718 49.3732 93.9764 48.753C92.5705 47.5022 90.7197 46.8539 88.8305 46.9504C87.8952 46.9975 86.9785 47.2266 86.133 47.6245C85.2875 48.0224 84.519 48.5758 83.8925 49.2636L83.9084 49.2462ZM87.104 51.8268C87.666 51.292 88.4158 50.9933 89.196 50.9933C89.9761 50.9934 90.7259 51.2922 91.2878 51.827C91.8497 52.3618 92.18 53.091 92.2092 53.8614C92.2384 54.6317 91.9644 55.3833 91.4446 55.9582L91.406 55.9963C91.2597 56.1533 91.0957 56.2932 90.9172 56.4133C89.418 57.7112 87.9913 59.0887 86.6435 60.5396L86.3218 60.8956C86.2596 60.9633 86.1779 61.0107 86.0877 61.0314C85.9975 61.0521 85.9031 61.0451 85.817 61.0114C85.7309 60.9777 85.6573 60.9189 85.6059 60.8428C85.5545 60.7667 85.5278 60.6769 85.5294 60.5854L85.5602 60.0108C85.6471 57.9277 85.8688 55.8522 86.2241 53.7971C86.2578 53.0426 86.5531 52.3502 87.104 51.8268Z" fill="#264156"/>
<path id="Vector_3" d="M82.7224 95.2183C82.6429 95.0089 82.529 94.8139 82.3853 94.6412C82.3684 94.616 82.3486 94.593 82.3261 94.5725C78.6253 88.3699 76.8369 81.2348 77.1802 74.0424C77.1802 73.9331 77.1931 73.8213 77.1982 73.7119C77.2308 73.0899 77.2797 72.4721 77.3449 71.8585C77.2846 70.5315 76.9431 69.2318 76.3426 68.0434C75.7421 66.855 74.8959 65.8044 73.8587 64.9594C72.8215 64.1144 71.6163 63.4939 70.3212 63.138C69.0261 62.7821 67.6698 62.6987 66.34 62.8933C65.0103 63.0878 63.7366 63.5559 62.6014 64.2673C61.4662 64.9788 60.4947 65.9177 59.7498 67.0234C59.0048 68.1291 58.503 69.3769 58.2767 70.6863C58.0504 71.9956 58.1047 73.3373 58.4361 74.6247C58.7003 75.3467 58.985 76.0628 59.2903 76.773C63.2348 85.9165 70.3702 93.3569 79.3981 97.7404L79.5036 97.7912C79.7069 97.8904 79.9153 97.9844 80.1185 98.0785C80.2658 98.1166 80.4167 98.1396 80.5688 98.1472C80.9325 98.1664 81.2954 98.0954 81.6243 97.9408C81.9532 97.7861 82.2378 97.5526 82.452 97.2615C82.6663 96.9704 82.8035 96.631 82.8512 96.2741C82.8989 95.9173 82.8555 95.5543 82.7249 95.2183H82.7224ZM69.7572 85.5189C68.6559 84.3096 67.6357 83.0306 66.7031 81.6901C65.2269 79.5877 63.9781 77.3381 62.9774 74.9781C62.9517 74.9221 62.9259 74.8687 62.8976 74.8153C62.67 74.407 62.497 73.9711 62.383 73.5187C62.2592 73.0105 62.2115 72.4871 62.2415 71.9653C62.3202 70.5972 62.9198 69.3092 63.9199 68.36C64.92 67.4108 66.2466 66.8707 67.6331 66.8482C69.0197 66.8256 70.3635 67.3223 71.3947 68.2385C72.4258 69.1547 73.068 70.4225 73.1921 71.7873C73.2157 72.0409 73.2209 72.2958 73.2075 72.55C73.1947 72.7666 73.1689 72.9822 73.1303 73.1958C73.0732 73.5321 73.0405 73.8719 73.0326 74.2128C72.9609 76.1582 73.0271 78.1062 73.2307 80.0426C73.3593 81.2409 73.5394 82.4274 73.771 83.602C74.2187 85.8647 71.3653 87.2986 69.8035 85.585L69.7572 85.5189Z" fill="#264156"/>
<path id="Vector_4" fill-rule="evenodd" clip-rule="evenodd" d="M70.6113 99.5202C70.9201 99.6371 71.2365 99.7515 71.5504 99.8558H71.5324C71.8452 100.045 72.1128 100.3 72.3172 100.601C72.5228 100.903 72.659 101.245 72.716 101.605C72.7733 101.964 72.7513 102.331 72.6517 102.68C72.6007 102.857 72.5309 103.027 72.4433 103.189C72.2969 103.446 72.0938 103.668 71.8489 103.837L71.4861 104.091C71.3118 104.213 71.1202 104.308 70.9175 104.374L70.5959 104.478C68.9046 105.008 67.1815 105.459 65.4268 105.83C61.7051 106.612 57.9105 107.004 54.1057 107C53.2 107 52.3046 106.977 51.4041 106.934L50.6322 106.891C45.1635 106.548 39.7793 105.385 34.6643 103.443C33.3264 102.935 32.015 102.375 30.7303 101.765C29.8726 101.355 29.0252 100.926 28.1882 100.479C27.0749 99.882 25.9866 99.2439 24.9231 98.5642C23.288 97.5347 21.711 96.4177 20.1991 95.2184L20.1373 95.1065H20.0653C18.8183 94.1082 17.6175 93.0565 16.4631 91.9514C15.1744 90.7214 13.9489 89.4282 12.7915 88.0767C7.47732 81.8551 3.66722 74.5191 1.65035 66.6253C-0.366518 58.7316 -0.537151 50.4876 1.1514 42.519C1.45501 41.0817 1.81522 39.6698 2.23204 38.2833C2.43788 37.5901 2.65916 36.9037 2.89587 36.224C3.59944 34.1834 4.42863 32.1873 5.37879 30.2467C7.84209 25.2138 11.0882 20.5932 14.9991 16.5532C15.7539 15.777 16.5258 15.0278 17.3148 14.3057C18.779 12.9608 20.3174 11.697 21.923 10.5201C22.6794 9.95566 23.4513 9.41921 24.2387 8.91072C25.7241 7.93443 27.2568 7.03187 28.8366 6.20304C39.4106 0.691279 51.529 -1.22107 63.3144 0.762256C64.3007 0.931751 65.2758 1.12328 66.2398 1.33684C66.6561 1.43082 67.0321 1.65131 67.315 1.96734C67.5979 2.28336 67.7735 2.67903 67.8171 3.09874V3.114C67.9234 4.06486 67.9972 5.02421 68.0383 5.99202C68.0563 6.38355 68.0743 6.78017 68.0743 7.17679V7.75901C68.0869 16.9375 65.0567 25.8674 59.4472 33.1832C58.8194 34.0019 58.1624 34.7977 57.4763 35.5706C57.3168 35.7613 57.1289 35.9621 56.9617 36.1477L56.743 36.3842C56.514 36.6384 56.2644 36.8926 56.0406 37.1189C55.8167 37.3452 55.5877 37.574 55.3587 37.7952C55.05 38.1003 54.7335 38.3978 54.4119 38.6927C53.7978 39.2554 53.1674 39.8003 52.5208 40.3275L52.2635 40.5232L51.8852 40.8232C51.1511 41.4012 50.3989 41.9521 49.6287 42.4758C47.2651 44.0894 44.7429 45.4633 42.1002 46.5767C41.6294 46.7776 41.1585 46.9657 40.6825 47.1462C40.2914 47.2971 39.8978 47.4395 39.5015 47.5734L39.3291 47.6395C35.08 49.5031 31.2758 52.2304 28.1646 55.6438C25.0533 59.0571 22.7048 63.0799 21.272 67.45C21.1514 67.8204 21.138 68.2167 21.2334 68.5941C22.6206 74.0593 24.9441 79.2496 28.1033 83.9402C28.2475 84.1544 28.4646 84.3104 28.7153 84.3799C28.966 84.4494 29.2336 84.4278 29.4695 84.319C35.8046 81.3552 41.2869 76.8869 45.4529 71.317C45.4047 71.3813 45.428 71.3502 45.4529 71.317C45.5018 71.2382 45.4529 71.317 45.5866 71.1086C45.7041 70.9254 45.7821 70.8009 45.8876 70.6484C46.1521 70.266 46.5435 70.1263 46.9529 70.0283C47.3623 69.9304 47.7918 69.9547 48.1872 70.0982C48.5826 70.2416 48.926 70.4978 49.1739 70.8343C49.4218 71.1708 49.5631 71.5724 49.5798 71.9883C49.5696 72.3339 49.5696 72.3339 49.5696 72.7153C49.7446 74.4696 50.1536 75.8654 50.6142 77.5689C51.8464 82.143 54.0859 86.3918 57.1727 90.0115C57.8039 90.7454 58.4617 91.4564 59.1462 92.1446L59.2465 92.2412C62.4825 95.4205 66.3529 97.8994 70.6113 99.5202ZM20.8115 58.6075C22.8113 55.3194 25.3194 52.3607 28.2448 49.8387C28.8949 49.2692 29.581 48.7276 30.3032 48.214C30.4567 48.1004 30.576 47.9474 30.6479 47.7717C30.7225 47.5977 30.7466 47.4067 30.7174 47.22C30.6897 47.0334 30.6115 46.8577 30.491 46.7115C30.3697 46.5642 30.2107 46.4518 30.0304 46.386C29.5158 46.1954 29.027 45.9869 28.5407 45.7555C26.6337 44.8483 24.8942 43.6314 23.3947 42.1555C23.2772 42.0354 23.13 41.9477 22.9676 41.9012C22.8052 41.8563 22.6338 41.8538 22.4701 41.8939C22.3064 41.934 22.156 42.0153 22.0336 42.13C21.913 42.2448 21.8243 42.3884 21.7763 42.547C21.4624 43.564 21.1871 44.586 20.9504 45.6132C20.6468 46.9335 20.4006 48.2708 20.212 49.6251C19.8792 51.9267 19.7115 54.2486 19.7102 56.5735C19.7102 57.1719 19.7205 57.7651 19.7411 58.3532C19.7437 58.4763 19.7871 58.5951 19.8646 58.6914C19.9432 58.7874 20.0503 58.8567 20.1708 58.8897C20.2911 58.9201 20.418 58.9118 20.5332 58.8661C20.6484 58.8204 20.7459 58.7396 20.8115 58.6354V58.6075ZM23.7113 35.4688C23.8592 35.8004 24.1706 36.281 24.3853 36.5748C27.4497 40.4114 31.3452 43.4953 36.6481 43.4953C37.5062 43.4949 38.3627 43.4218 39.2082 43.2767L39.306 43.2589L39.5221 43.2156C40.7523 42.9745 41.9458 42.5771 43.0728 42.0334C44.4163 41.4085 45.6856 40.6385 46.8576 39.7376C46.94 39.674 47.7376 39.013 47.8148 38.9469C48.7977 38.1383 47.8148 38.9469 48.7977 38.1383C49.8269 37.2485 50.5936 36.5892 51.3758 35.8808C51.6382 35.6485 51.8955 35.4121 52.1477 35.1714L52.4384 34.8918L52.6134 34.7189C53.1125 34.2256 53.5937 33.7172 54.062 33.2087C54.2472 33.0053 54.4325 32.7993 54.61 32.5909C54.8313 32.3366 55.0448 32.0824 55.2558 31.8281L55.3304 31.7366C55.7953 31.1705 56.2438 30.5917 56.6761 30.0001C61.4017 23.5262 63.9342 15.7412 63.9113 7.75901V7.45392C63.9113 7.30137 63.9113 7.14628 63.9113 6.99119C63.9113 6.8361 63.9113 6.63271 63.9113 6.4522C63.8962 6.03013 63.7345 5.62607 63.4533 5.30797C63.1722 4.98987 62.7887 4.77714 62.3675 4.70556C61.081 4.49453 59.7765 4.3369 58.4643 4.22504C57.0372 4.1047 55.5972 4.04452 54.1443 4.04452C47.4545 4.03146 40.8309 5.35188 34.6695 7.92681C34.3118 8.07681 33.9542 8.22935 33.6017 8.38953C32.0485 9.07892 30.5327 9.84777 29.0604 10.693C28.5896 10.9599 28.1213 11.237 27.6607 11.5243C26.0555 12.511 24.5091 13.5882 23.0294 14.7507C22.6151 15.0761 22.2034 15.4092 21.7995 15.7473C20.7497 16.6304 19.7334 17.5567 18.7505 18.5262C18.1656 19.1041 17.5978 19.6974 17.0472 20.3059C14.8814 22.6585 12.9513 25.2129 11.2838 27.9331C10.228 29.6595 9.28275 31.4494 8.45349 33.2926C8.3094 33.6078 8.17046 33.9256 8.03409 34.2434C7.14414 36.3211 6.39966 38.4566 5.8059 40.6351C5.43196 42.0012 5.12149 43.3818 4.87449 44.7767C4.35905 47.653 4.10076 50.5685 4.10259 53.4896C4.08701 65.5513 8.54899 77.1998 16.6433 86.2284C17.0807 86.714 17.5284 87.1945 17.9863 87.6648C18.2402 87.9259 18.4975 88.1852 18.7582 88.4428C19.7102 89.3903 20.6948 90.2886 21.712 91.1378C22.2746 91.6141 22.8475 92.0759 23.4307 92.5234C24.2044 93.1183 24.9934 93.6904 25.7979 94.2395C27.3517 95.2974 28.9659 96.266 30.6325 97.1404C31.9499 97.8286 33.2947 98.4617 34.6669 99.0396L34.9525 99.1591C35.5983 99.4337 36.2519 99.6854 36.9054 99.9219C36.9814 99.9477 37.0643 99.946 37.1392 99.9172C37.2141 99.8883 37.2762 99.8341 37.3145 99.7642C37.3525 99.6942 37.3644 99.6132 37.3479 99.5354C37.3321 99.4575 37.2882 99.388 37.2244 99.3396L37.1395 99.2761C36.8822 99.0956 36.6404 98.9125 36.4114 98.7244C35.3616 97.9125 34.3444 97.065 33.3598 96.182C32.2466 95.1802 31.172 94.1311 30.1359 93.0344C29.0999 91.9378 28.1067 90.8013 27.1564 89.625C26.2713 88.5132 25.4299 87.3648 24.6323 86.1801C22.6795 83.28 21.018 80.1983 19.6716 76.979C18.4461 74.0495 17.4903 71.0169 16.8156 67.9178C15.4602 61.6889 15.2302 55.2722 16.1364 48.9641C16.3302 47.6081 16.5755 46.2742 16.8722 44.9623C17.5073 42.1134 18.3782 39.3209 19.4761 36.613C19.5533 36.3994 19.6485 36.1858 19.7334 35.9723C19.7668 35.8985 19.7977 35.8223 19.8312 35.7485C19.8646 35.6748 19.8929 35.6011 19.9264 35.5274C20.0422 35.2384 20.2217 34.9785 20.4517 34.7665C20.6818 34.5546 20.9567 34.3959 21.2566 34.3019C21.5572 34.2103 21.8746 34.1855 22.186 34.2295C22.4974 34.2735 22.7951 34.385 23.0577 34.5561C23.4153 34.7723 23.4926 35.0188 23.7113 35.4688ZM56.1975 102.846C56.2504 102.879 56.3125 102.895 56.3751 102.891C59.0364 102.777 61.684 102.451 64.2921 101.915C64.3765 101.897 64.4536 101.855 64.5134 101.793C64.5749 101.732 64.6146 101.652 64.6266 101.567C64.6407 101.482 64.6281 101.395 64.5903 101.318C64.5526 101.24 64.4915 101.176 64.4156 101.135C61.6488 99.6116 59.0903 97.7456 56.8022 95.5819C56.0972 94.9175 55.4205 94.226 54.7721 93.5073C54.6294 93.3545 54.4316 93.2633 54.2215 93.2531C54.1174 93.2482 54.0134 93.2637 53.9154 93.2986C53.8174 93.3335 53.7273 93.3871 53.6503 93.4565C51.7276 95.1575 49.6618 96.6936 47.4752 98.0481L47.2436 98.1879C47.154 98.2455 47.0593 98.2949 46.9606 98.3354C46.6279 98.4635 46.2676 98.5051 45.9141 98.4561C45.5606 98.4071 45.2257 98.2691 44.9416 98.0555C44.6575 97.8419 44.4337 97.5598 44.2916 97.2362C44.1496 96.9126 44.094 96.5583 44.1303 96.2074C44.1426 96.0851 44.1667 95.9642 44.2023 95.8464C44.3519 95.372 44.6748 94.9696 45.108 94.7175C45.2393 94.6387 45.3653 94.5574 45.4965 94.476L45.5686 94.4302C47.5541 93.1738 49.4265 91.7508 51.1648 90.1768C51.3209 90.0334 51.4204 89.8399 51.4453 89.6308C51.4703 89.4216 51.4192 89.2105 51.3012 89.0352C49.7426 86.6645 48.4681 84.1228 47.5035 81.4613C47.0662 80.2609 46.6951 79.0379 46.3919 77.7977C46.3737 77.7023 46.3281 77.6141 46.2607 77.5435C46.1908 77.4722 46.1014 77.4227 46.0034 77.4011C45.9108 77.3757 45.813 77.3757 45.7204 77.4011C45.628 77.4305 45.546 77.4852 45.4837 77.5587C41.6325 81.7404 37.014 85.1628 31.8727 87.6445C31.7825 87.6897 31.7034 87.754 31.6411 87.8326C31.5788 87.9118 31.5356 88.004 31.515 88.1021C31.4919 88.1991 31.4919 88.3001 31.515 88.3971C31.5418 88.4904 31.5883 88.577 31.6514 88.6513C32.3186 89.4208 33.0108 90.1717 33.7278 90.9039C33.8585 91.0369 34.0283 91.1258 34.2132 91.1578C34.398 91.1897 34.5883 91.1632 34.757 91.0819C37.6285 89.6858 40.3231 87.9594 42.7846 85.9385L42.8541 85.8801L43.0033 85.758L43.2298 85.5699C43.6535 85.244 44.1892 85.0947 44.7228 85.1536C45.2564 85.2126 45.7455 85.4752 46.0859 85.8855C46.4263 86.2958 46.5909 86.8213 46.5448 87.3499C46.4986 87.8784 46.2452 88.3683 45.8387 88.7149C45.7384 88.8064 45.6355 88.8903 45.5351 88.9691C43.2746 90.8327 40.834 92.472 38.2485 93.8633C38.1553 93.9134 38.0766 93.986 38.0195 94.0743C37.9615 94.161 37.9262 94.2606 37.9166 94.3641C37.908 94.4682 37.9247 94.5728 37.9655 94.6692C38.0073 94.7678 38.0727 94.855 38.1559 94.9235C39.0324 95.6387 39.9321 96.3167 40.8549 96.9574C42.1603 97.8693 43.5051 98.7168 44.8893 99.4998C46.4172 100.364 47.9907 101.148 49.603 101.846C49.7813 101.923 49.9773 101.949 50.1697 101.922C50.3621 101.896 50.5435 101.818 50.6939 101.696C51.7008 100.874 52.6691 100.004 53.5988 99.0854C53.8278 98.8591 54.0517 98.6329 54.2755 98.4015C54.3681 98.3049 54.4633 98.2057 54.5534 98.1066C54.9503 97.769 55.4605 97.5899 55.984 97.6045C56.5075 97.6191 57.0066 97.8262 57.3837 98.1854C57.665 98.4556 57.8622 98.7996 57.9523 99.1769C58.0165 99.4435 58.027 99.7199 57.9832 99.9905C57.9219 100.353 57.7536 100.689 57.4994 100.957C57.3785 101.086 57.2422 101.211 57.1289 101.343C56.797 101.691 56.4574 102.03 56.1152 102.36C56.07 102.403 56.0394 102.459 56.0277 102.52C56.015 102.581 56.0222 102.644 56.0483 102.701C56.0795 102.765 56.1322 102.816 56.1975 102.846ZM46.5077 18.1829C46.6053 17.8526 46.6547 17.5101 46.6544 17.166C46.6327 16.1964 46.2286 15.2735 45.5282 14.5941C44.8279 13.9146 43.8867 13.5323 42.9052 13.5287C41.9237 13.525 40.9796 13.9003 40.2741 14.5745C39.5686 15.2488 39.1575 16.1686 39.1284 17.138V17.1533C39.1233 17.2498 39.1233 17.3465 39.1284 17.4431C39.1568 17.8135 39.2436 18.1772 39.3857 18.5211C39.6617 19.2148 40.1431 19.8102 40.7669 20.2293C41.3907 20.6484 42.128 20.8718 42.8824 20.8703H42.921C43.3607 20.8662 43.7963 20.7853 44.2075 20.6313C44.531 20.5122 44.8358 20.3488 45.1132 20.1457C45.6659 19.7465 46.0968 19.2047 46.3585 18.5796C46.4171 18.4508 46.467 18.3183 46.5077 18.1829Z" fill="#136E88"/>
<path id="Vector_5" d="M108.393 51.5192C108.3 51.4681 108.221 51.3946 108.164 51.3056C108.108 51.2168 108.076 51.1152 108.071 51.0107C108.076 50.9104 108.071 50.8099 108.056 50.7107C107.582 40.5918 104.312 31.6425 98.9912 23.7966C96.6425 20.3409 93.896 17.1662 90.8066 14.3362C89.7774 13.3989 88.7182 12.5006 87.6289 11.6413C84.3759 9.08537 80.8362 6.90747 77.0798 5.15045L76.6192 4.93943L76.1664 4.73603C75.9806 4.65385 75.7778 4.61638 75.5746 4.62671C75.1895 4.64436 74.8165 4.76465 74.4951 4.97483C74.1736 5.185 73.9157 5.47723 73.7488 5.82051C73.5818 6.16379 73.5119 6.54533 73.5466 6.92466C73.5813 7.30398 73.7193 7.66696 73.9459 7.97508C76.3538 11.5445 77.8802 15.6226 78.4023 19.8812L78.4254 20.0897C78.5 20.7253 78.5541 21.3609 78.5849 22.0143C78.6004 22.3703 78.6107 22.7237 78.6132 23.0771V23.2169C78.6107 23.2346 78.6107 23.2526 78.6132 23.2703V23.4559C78.6183 23.5942 78.639 23.7315 78.675 23.8652C78.6806 23.9143 78.6936 23.9623 78.7136 24.0076C78.729 24.0559 78.729 24.0483 78.7342 24.0686C78.8779 24.4656 79.1387 24.811 79.4829 25.0602C79.8265 25.3088 80.2382 25.4488 80.6639 25.4619C81.0915 25.4767 81.5136 25.3631 81.8746 25.1362C82.2356 24.9093 82.5186 24.5796 82.6863 24.1907C82.6888 24.1832 82.6888 24.1752 82.6863 24.1678C82.8329 23.8601 82.9924 23.5576 83.1545 23.2576C84.0065 21.6838 85.0121 20.1962 86.1572 18.816C86.484 18.4168 86.8262 18.0227 87.1864 17.6388L87.2661 17.5498C87.3252 17.4841 87.397 17.4305 87.4771 17.3922C87.5579 17.3548 87.6453 17.3332 87.7344 17.3287C87.8221 17.325 87.9096 17.3388 87.9917 17.3693C88.0754 17.3992 88.1523 17.445 88.2181 17.5041C88.6941 17.9363 88.99 18.216 89.448 18.6812C98.0503 27.1998 103.199 38.5352 103.924 50.548C103.927 50.613 103.907 50.6771 103.867 50.7288C103.827 50.7804 103.769 50.8164 103.705 50.8302C102.301 51.1435 101.038 51.9015 100.11 52.989C99.1823 54.0764 98.6392 55.4337 98.5638 56.8543C98.4883 58.2748 98.8846 59.6808 99.6924 60.8583C100.5 62.0358 101.675 62.9202 103.038 63.377C103.818 63.6413 104.642 63.7561 105.465 63.7152C106.896 63.6479 108.266 63.1225 109.369 62.2184C110.471 61.3143 111.246 60.0805 111.577 58.703C111.908 57.3255 111.776 55.879 111.203 54.5818C110.629 53.2846 109.643 52.207 108.395 51.5115L108.393 51.5192ZM82.483 16.8634C82.4516 16.9085 82.4079 16.9437 82.3569 16.9651C82.3193 16.9806 82.2787 16.9881 82.238 16.987C82.1972 16.9859 82.1571 16.9763 82.1204 16.9587C82.0836 16.9412 82.0511 16.9161 82.0249 16.8852C81.9987 16.8543 81.9794 16.8183 81.9684 16.7795C81.9118 16.6041 81.9684 16.7973 81.9684 16.7795C81.6931 15.2822 81.2894 13.8108 80.7617 12.3811C80.743 12.3275 80.743 12.2694 80.7617 12.2158C80.7769 12.1621 80.8083 12.1142 80.8517 12.0786C80.897 12.0437 80.9515 12.0225 81.0087 12.0175C81.0657 12.0143 81.1223 12.0285 81.1708 12.0582C82.2514 12.7498 83.3055 13.4845 84.333 14.2625C84.3638 14.2857 84.3893 14.3152 84.4076 14.3489C84.4257 14.3818 84.4362 14.4183 84.4384 14.4557C84.4432 14.4935 84.4388 14.5318 84.4256 14.5676C84.4125 14.6033 84.3924 14.6361 84.3664 14.6642C83.7026 15.3684 83.0696 16.1159 82.483 16.8634ZM106.818 58.8591C105.66 59.7769 104.575 59.8202 103.71 59.2024C103.366 58.9578 103.091 58.6302 102.911 58.2509C102.731 57.8716 102.652 57.4532 102.682 57.0353C102.712 56.6175 102.85 56.2141 103.082 55.8636C103.314 55.5131 103.633 55.2271 104.008 55.0328C104.326 54.8655 104.678 54.77 105.038 54.7531C106.985 54.6641 108.491 57.0794 106.818 58.8591Z" fill="#136E88"/>
</g>
</svg>
