<svg width="101" height="26" viewBox="0 0 101 26" fill="none" xmlns="http://www.w3.org/2000/svg">
<g id="LOGO" clip-path="url(#clip0_676_45)">
<path id="Vector" d="M19.2781 15.0462V16.105C18.9207 15.7184 18.5122 15.4327 18.0185 15.2478C17.5419 15.0462 17.0313 14.9453 16.4525 14.9453C15.6014 14.9453 14.8184 15.1302 14.1375 15.4999C13.4737 15.8697 12.946 16.3907 12.5545 17.063C12.18 17.7184 11.9928 18.5083 11.9928 19.3991C11.9928 20.2899 12.18 21.063 12.5545 21.7352C12.946 22.4075 13.4737 22.9285 14.1375 23.2983C14.8184 23.668 15.5844 23.8529 16.4525 23.8529C17.0653 23.8529 17.61 23.752 18.1036 23.5504C18.6143 23.3487 19.0398 23.0293 19.3803 22.626V23.752H21.3378V15.063H19.2781V15.0462ZM18.5632 21.3655C18.0696 21.8697 17.4398 22.1218 16.6908 22.1218C15.9419 22.1218 15.3121 21.8697 14.8184 21.3655C14.3418 20.8613 14.0865 20.2058 14.0865 19.3991C14.0865 18.5756 14.3248 17.9201 14.8184 17.4327C15.3121 16.9285 15.9419 16.6932 16.6908 16.6932C17.4398 16.6932 18.0696 16.9453 18.5632 17.4327C19.0568 17.9369 19.3122 18.5924 19.3122 19.3991C19.3122 20.2058 19.0739 20.8781 18.5632 21.3655ZM29.304 21.8361C28.9295 22.0377 28.521 22.1218 28.0614 22.1218C27.2784 22.1218 26.6316 21.8697 26.1379 21.3823C25.6443 20.8781 25.389 20.2226 25.389 19.3991C25.389 18.5756 25.6443 17.9201 26.1549 17.4327C26.6656 16.9285 27.2954 16.6932 28.0614 16.6932C28.504 16.6932 28.9295 16.7941 29.304 16.9957C29.6955 17.1974 30.0019 17.4831 30.2572 17.8865L31.8402 16.9789C31.5168 16.3235 31.0232 15.8193 30.3593 15.4831C29.7125 15.1302 28.9465 14.9621 28.0784 14.9621C27.1592 14.9621 26.3252 15.147 25.6102 15.5335C24.8953 15.9201 24.3336 16.4411 23.9251 17.1134C23.5166 17.7857 23.3123 18.5588 23.3123 19.4159C23.3123 20.273 23.5166 21.0462 23.9251 21.7352C24.3336 22.4075 24.8953 22.9285 25.6273 23.3151C26.3592 23.7016 27.1763 23.8865 28.0784 23.8865C28.9295 23.8865 29.6955 23.7184 30.3423 23.3655C31.0062 23.0125 31.4998 22.5083 31.8402 21.8529L30.2572 20.9453C30.0019 21.3151 29.6785 21.6176 29.304 21.8361ZM47.4152 15.9201C46.7684 15.2814 45.8832 14.9621 44.7768 14.9621C44.0789 14.9621 43.4491 15.0966 42.8874 15.3487C42.3086 15.6008 41.8491 15.9537 41.4916 16.4075C41.2022 15.9369 40.7937 15.5672 40.266 15.3319C39.7554 15.0798 39.1766 14.9621 38.5128 14.9621C37.917 14.9621 37.3553 15.063 36.8617 15.2646C36.368 15.4663 35.9595 15.7688 35.6191 16.1554V15.0462H33.6616V23.7352H35.7212V19.3151C35.7212 18.4747 35.9255 17.8193 36.334 17.3823C36.7595 16.9453 37.3213 16.71 38.0191 16.71C38.666 16.71 39.1426 16.9117 39.483 17.2983C39.8235 17.6848 39.9937 18.2562 39.9937 19.0125V23.7352H42.0533V19.3151C42.0533 18.4747 42.2576 17.8361 42.6831 17.3991C43.1087 16.9453 43.6534 16.71 44.3513 16.71C44.9981 16.71 45.4747 16.9117 45.8151 17.2983C46.1556 17.6848 46.3258 18.2562 46.3258 19.0125V23.7352H48.3854V18.7436C48.3854 17.4999 48.062 16.542 47.4152 15.9201ZM57.2027 15.0462V19.4495C57.2027 20.2899 56.9814 20.9453 56.5389 21.3991C56.1133 21.8529 55.5346 22.0714 54.8027 22.0714C54.1388 22.0714 53.6111 21.8865 53.2537 21.4999C52.8962 21.1134 52.726 20.5251 52.726 19.7352V15.0462H50.6664V20.0041C50.6664 21.2814 51.0068 22.2394 51.6877 22.8781C52.3685 23.5167 53.3047 23.8361 54.4792 23.8361C55.058 23.8361 55.5857 23.7352 56.0623 23.5335C56.5559 23.3151 56.9644 23.0125 57.3049 22.626V23.7352H59.2624V15.0462H57.2027ZM63.637 21.5335C63.3817 21.2814 63.0582 21.1638 62.6838 21.1638C62.3093 21.1638 61.9688 21.2814 61.7135 21.5335C61.4582 21.7856 61.339 22.105 61.339 22.5083C61.339 22.8949 61.4752 23.231 61.7305 23.4831C61.9859 23.7352 62.3093 23.8529 62.6838 23.8529C63.0582 23.8529 63.3817 23.7352 63.637 23.4831C63.8923 23.2142 64.0285 22.8949 64.0285 22.5083C64.0285 22.105 63.9093 21.7856 63.637 21.5335Z" fill="white"/>
<path id="Vector_2" d="M83.6377 17.0966C83.2462 16.4243 82.6845 15.9033 81.9696 15.5167C81.2547 15.1302 80.4376 14.9453 79.5525 14.9453C78.6674 14.9453 77.8503 15.1302 77.1354 15.5167C76.4205 15.9033 75.8588 16.4243 75.4503 17.0966C75.0588 17.7688 74.8545 18.542 74.8545 19.3991C74.8545 20.2562 75.0588 21.0293 75.4503 21.7184C75.8588 22.3907 76.4205 22.9117 77.1354 23.2983C77.8503 23.6848 78.6504 23.8697 79.5525 23.8697C80.4547 23.8697 81.2547 23.6848 81.9696 23.2983C82.6845 22.9117 83.2462 22.3907 83.6377 21.7184C84.0463 21.0293 84.2505 20.2562 84.2505 19.3991C84.2505 18.542 84.0463 17.7688 83.6377 17.0966ZM81.4249 21.3655C80.9313 21.8697 80.3015 22.1218 79.5525 22.1218C78.7865 22.1218 78.1737 21.8697 77.6801 21.3655C77.2035 20.8613 76.9482 20.2058 76.9482 19.3991C76.9482 18.5756 77.1865 17.9201 77.6801 17.4327C78.1737 16.9285 78.8035 16.6932 79.5525 16.6932C80.3185 16.6932 80.9313 16.9453 81.4249 17.4327C81.9185 17.9369 82.1739 18.5924 82.1739 19.3991C82.1739 20.2058 81.9356 20.8781 81.4249 21.3655ZM99.9787 15.9201C99.3319 15.2814 98.4467 14.9621 97.3403 14.9621C96.6424 14.9621 96.0126 15.0966 95.4509 15.3487C94.8721 15.6008 94.4126 15.9537 94.0551 16.4075C93.7657 15.9369 93.3572 15.5672 92.8295 15.3319C92.3189 15.0798 91.7401 14.9621 91.0763 14.9621C90.4805 14.9621 89.9188 15.063 89.4252 15.2646C88.9315 15.4663 88.523 15.7688 88.1826 16.1554V15.0462H86.2251V23.7352H88.2847V19.3151C88.2847 18.4747 88.489 17.8193 88.8975 17.3823C89.323 16.9453 89.8847 16.71 90.5826 16.71C91.2295 16.71 91.7061 16.9117 92.0465 17.2983C92.387 17.6848 92.5572 18.2562 92.5572 19.0125V23.7352H94.6168V19.3151C94.6168 18.4747 94.8211 17.8361 95.2466 17.3991C95.6722 16.9453 96.2169 16.71 96.9148 16.71C97.5616 16.71 98.0382 16.9117 98.3786 17.2983C98.7191 17.6848 98.8893 18.2562 98.8893 19.0125V23.7352H100.949V18.7436C100.949 17.4999 100.626 16.542 99.9787 15.9201Z" fill="white"/>
<path id="Vector_3" d="M10.6652 19.3656V23.7186H8.74175V19.3656C8.74175 18.0043 7.61831 16.895 6.25656 16.895C4.8778 16.895 3.75436 18.0043 3.75436 19.3656V23.7186H0.69043V21.8194H1.84791V19.3656C1.84791 16.9623 3.82244 15.0127 6.25656 15.0127C8.69068 15.0127 10.6652 16.9623 10.6652 19.3656Z" fill="white"/>
<path id="Vector_4" d="M9.54386 7.65107C9.54386 10.0544 7.56933 12.004 5.13521 12.004H0.726562V10.1049H5.13521C6.51398 10.1049 7.6204 8.99561 7.6204 7.63426C7.6204 6.27292 6.49696 5.18048 5.13521 5.18048H0.726562V2.15527H2.65003V3.29813H5.13521C7.55231 3.29813 9.54386 5.24771 9.54386 7.65107Z" fill="#136E88"/>
<path id="Vector_5" d="M66.5989 19.8197C66.5989 21.1811 67.7224 22.2903 69.0841 22.2903H73.4928V25.3155H71.5693V24.1727H69.0671C66.633 24.1727 64.6584 22.2231 64.6584 19.8197C64.6584 17.4164 66.633 15.4668 69.0671 15.4668H73.4757V17.366H69.0671C67.7224 17.3492 66.5989 18.4584 66.5989 19.8197Z" fill="white"/>
<path id="Vector_6" d="M48.0472 1.11328V2.18891H45.5961V1.11328H48.0472Z" fill="#136E88"/>
<path id="Vector_7" d="M19.7741 3.01311V11.7022H17.8166V10.5929C17.4932 10.9795 17.0676 11.282 16.574 11.5005C16.0974 11.7022 15.5697 11.803 14.991 11.803C13.8165 11.803 12.8803 11.4837 12.1994 10.845C11.5185 10.1896 11.1781 9.23159 11.1781 7.95428V2.97949H13.2377V7.66857C13.2377 8.45848 13.408 9.02991 13.7654 9.43327C14.1229 9.81983 14.6506 10.0047 15.3144 10.0047C16.0463 10.0047 16.6251 9.78621 17.0506 9.33243C17.4932 8.87865 17.7145 8.22319 17.7145 7.38285V2.97949H19.7741V3.01311Z" fill="#136E88"/>
<path id="Vector_8" d="M27.7064 7.18025C28.2511 7.33151 28.6766 7.58361 28.983 7.93655C29.2894 8.27268 29.4426 8.67604 29.4426 9.16344C29.4426 9.70125 29.2553 10.1718 28.8979 10.5752C28.5404 10.9786 28.0298 11.2979 27.4 11.5164C26.7702 11.7517 26.0382 11.8525 25.2212 11.8525C24.5403 11.8525 23.8764 11.7685 23.2296 11.6172C22.5828 11.4492 21.987 11.2307 21.4594 10.9281L22.0551 9.41554C22.4807 9.65083 22.9743 9.83571 23.502 9.97016C24.0467 10.1046 24.5743 10.1718 25.119 10.1718C25.8169 10.1718 26.3446 10.071 26.7361 9.86932C27.1276 9.65083 27.3319 9.36512 27.3319 8.99537C27.3319 8.65924 27.1787 8.39033 26.8723 8.20546C26.5829 8.02058 26.1574 7.93655 25.5956 7.93655H23.8764V6.5752H25.4254C25.9361 6.5752 26.3446 6.49117 26.634 6.3063C26.9234 6.13823 27.0765 5.88613 27.0765 5.5668C27.0765 5.24747 26.9063 4.99537 26.5489 4.8105C26.1914 4.62562 25.7148 4.54159 25.102 4.54159C24.2169 4.54159 23.2977 4.76008 22.3104 5.18025L21.7828 3.68445C22.9402 3.14663 24.0977 2.89453 25.2722 2.89453C26.0212 2.89453 26.685 2.99537 27.2808 3.19705C27.8766 3.39873 28.3362 3.66764 28.6596 4.03739C29 4.39033 29.1702 4.8105 29.1702 5.28109C29.1702 5.70125 29.0341 6.08781 28.7787 6.42394C28.5404 6.74327 28.1659 6.99537 27.7064 7.18025Z" fill="#136E88"/>
<path id="Vector_9" d="M38.0897 3.01295V4.07177C37.7322 3.68522 37.3237 3.3995 36.83 3.21463C36.3534 3.01295 35.8258 2.91211 35.264 2.91211C34.4129 2.91211 33.6299 3.09698 32.9491 3.46673C32.2852 3.83648 31.7575 4.35749 31.366 5.02975C30.9916 5.68522 30.8043 6.47513 30.8043 7.36589C30.8043 8.25665 30.9916 9.04656 31.366 9.71883C31.7575 10.3911 32.2852 10.9121 32.9491 11.2819C33.6299 11.6516 34.3959 11.8365 35.264 11.8365C35.8598 11.8365 36.4215 11.7356 36.9152 11.534C37.4258 11.3323 37.8514 11.0129 38.1918 10.6096V11.7356H40.1493V3.02976H38.0897V3.01295ZM37.3918 9.33228C36.8981 9.83648 36.2683 10.0886 35.5194 10.0886C34.7534 10.0886 34.1406 9.83648 33.647 9.33228C33.1704 8.82808 32.915 8.17261 32.915 7.36589C32.915 6.55917 33.1533 5.8869 33.647 5.3995C34.1406 4.8953 34.7704 4.6432 35.5194 4.6432C36.2853 4.6432 36.8981 4.8953 37.3918 5.3995C37.8854 5.9037 38.1407 6.55917 38.1407 7.36589C38.1237 8.17261 37.8854 8.82808 37.3918 9.33228Z" fill="#136E88"/>
<path id="Vector_10" d="M51.2302 3.01311V11.7022H49.2727V10.5929C48.9492 10.9795 48.5237 11.282 48.0301 11.5005C47.5535 11.7022 47.0258 11.803 46.447 11.803C45.2725 11.803 44.3363 11.4837 43.6555 10.845C42.9746 10.1896 42.6342 9.23159 42.6342 7.95428V2.97949H44.6938V7.66857C44.6938 8.45848 44.864 9.02991 45.2215 9.43327C45.5789 9.81983 46.1066 10.0047 46.7705 10.0047C47.5024 10.0047 48.0811 9.78621 48.5067 9.33243C48.9492 8.87865 49.1705 8.22319 49.1705 7.38285V2.97949H51.2302V3.01311Z" fill="#136E88"/>
<path id="Vector_11" d="M54.0221 3.0127H56.0817V6.54211H60.5244V3.0127H62.5841V11.7018H60.5244V8.2732H56.0817V11.7018H54.0221V3.0127Z" fill="#136E88"/>
</g>
<defs>
<clipPath id="clip0_676_45">
<rect width="101" height="25" fill="white" transform="translate(0 0.5)"/>
</clipPath>
</defs>
</svg>
