<svg width="43" height="43" viewBox="0 0 43 43" fill="none" xmlns="http://www.w3.org/2000/svg">
<g id="Group">
<path id="Vector" fill-rule="evenodd" clip-rule="evenodd" d="M12.0404 18.9964H23.8657V16.6218H12.0404V18.9964Z" fill="white"/>
<path id="Vector_2" fill-rule="evenodd" clip-rule="evenodd" d="M16.7701 11.8728V23.7456H19.1352V11.8728H16.7701Z" fill="white"/>
<path id="Vector_3" fill-rule="evenodd" clip-rule="evenodd" d="M28.351 30.1321L36.5271 38.341L38.1992 36.6622L30.0231 28.4521L28.351 30.1321Z" fill="white"/>
<path id="Vector_4" d="M42.7858 39.3829L34.5944 31.1598L31.5518 30.946L30.9605 31.5397L31.3011 34.5684L39.4416 42.7417L42.7858 39.3817V39.3829Z" fill="white"/>
<path id="Vector_5" fill-rule="evenodd" clip-rule="evenodd" d="M17.9522 33.2439C9.46158 33.2439 2.57923 26.3339 2.57923 17.8092C2.57923 9.28454 9.46158 2.37456 17.9522 2.37456C26.4428 2.37456 33.3251 9.28454 33.3251 17.8092C33.3251 26.3339 26.4428 33.2439 17.9522 33.2439ZM17.9522 35.6184C8.15606 35.6184 0.214161 27.6447 0.214161 17.8092C0.214161 7.97378 8.15606 0 17.9522 0C27.7483 0 35.6902 7.97378 35.6902 17.8092C35.6902 27.6447 27.7483 35.6184 17.9522 35.6184Z" fill="white"/>
</g>
</svg>
