<svg width="66" height="24" viewBox="0 0 66 24" fill="none" xmlns="http://www.w3.org/2000/svg">
<g id="&#208;&#175;&#208;&#151;&#208;&#172;">
<path d="M14.24 23.2011V16.1291L15.52 17.2491H9.376C7.43467 17.2491 5.76 16.9291 4.352 16.2891C2.944 15.6491 1.86667 14.7211 1.12 13.5051C0.373333 12.2891 0 10.8384 0 9.15307C0 7.40373 0.394667 5.9104 1.184 4.67307C1.99467 3.4144 3.12533 2.4544 4.576 1.79307C6.02667 1.13173 7.73333 0.801067 9.696 0.801067H19.36V23.2011H14.24ZM0.064 23.2011L5.632 15.1691H10.88L5.536 23.2011H0.064ZM14.24 14.4651V3.68107L15.52 5.02507H9.824C8.352 5.02507 7.22133 5.3664 6.432 6.04907C5.664 6.73173 5.28 7.74507 5.28 9.08907C5.28 10.3904 5.65333 11.3931 6.4 12.0971C7.14667 12.8011 8.24533 13.1531 9.696 13.1531H15.52L14.24 14.4651Z" fill="#264156"/>
<path d="M22.956 21.2171L24.556 17.5051C25.516 18.0811 26.54 18.5291 27.628 18.8491C28.7373 19.1477 29.8147 19.3184 30.86 19.3611C31.9267 19.3824 32.8867 19.2757 33.74 19.0411C34.6147 18.8064 35.308 18.4544 35.82 17.9851C36.3533 17.5157 36.62 16.9184 36.62 16.1931C36.62 15.3397 36.268 14.7104 35.564 14.3051C34.86 13.8784 33.9213 13.6651 32.748 13.6651H27.276V9.76107H32.364C33.4093 9.76107 34.22 9.54773 34.796 9.12107C35.3933 8.6944 35.692 8.10773 35.692 7.36107C35.692 6.72107 35.4787 6.20907 35.052 5.82507C34.6253 5.41973 34.0387 5.12107 33.292 4.92907C32.5667 4.73707 31.7453 4.65173 30.828 4.67307C29.9107 4.6944 28.9613 4.84373 27.98 5.12107C26.9987 5.3984 26.06 5.7824 25.164 6.27307L23.596 2.27307C25.0467 1.5264 26.572 1.0144 28.172 0.737067C29.7933 0.438401 31.3507 0.363734 32.844 0.513066C34.3587 0.641067 35.724 0.982401 36.94 1.53707C38.156 2.0704 39.1267 2.7744 39.852 3.64907C40.5773 4.52373 40.94 5.5584 40.94 6.75307C40.94 7.81973 40.6627 8.76907 40.108 9.60107C39.5533 10.4331 38.7747 11.0731 37.772 11.5211C36.7907 11.9691 35.66 12.1931 34.38 12.1931L34.508 11.0411C36.0013 11.0411 37.292 11.2971 38.38 11.8091C39.4893 12.2997 40.3427 12.9931 40.94 13.8891C41.5587 14.7637 41.868 15.7771 41.868 16.9291C41.868 17.9957 41.58 18.9557 41.004 19.8091C40.4493 20.6411 39.6813 21.3451 38.7 21.9211C37.7187 22.4971 36.5987 22.9237 35.34 23.2011C34.0813 23.4784 32.7373 23.5957 31.308 23.5531C29.9 23.5104 28.4813 23.3077 27.052 22.9451C25.6227 22.5611 24.2573 21.9851 22.956 21.2171Z" fill="#264156"/>
<path d="M56.82 8.16107C59.5293 8.16107 61.62 8.76907 63.092 9.98507C64.564 11.1797 65.3 12.9824 65.3 15.3931C65.3 17.9531 64.4787 19.8944 62.836 21.2171C61.2147 22.5397 58.964 23.2011 56.084 23.2011H45.972V0.801067H51.124V8.16107H56.82ZM55.796 19.3611C57.1187 19.3611 58.164 19.0304 58.932 18.3691C59.7 17.7077 60.084 16.7477 60.084 15.4891C60.084 14.2517 59.7 13.3664 58.932 12.8331C58.1853 12.2784 57.14 12.0011 55.796 12.0011H51.124V19.3611H55.796Z" fill="#264156"/>
</g>
</svg>
